# xmcd
#
# Track frame offsets:
#	150
#	23855
#	47732
#	71612
#	96115
#	118995
#	129205
#	151982
#	170635
#	195412
#	216855
#	238907
#
# Disc length: 3429
#
# Revision: 1
# Processed by: cddbd v1.5.1PL0 Copyright (c) Steve Scherf et al.
# Submitted via: CdAid 2001.05.15.01
# Normalized: r0:TDELIM( - )
#
DISCID=a70d630c
DTITLE=Blues  Fye Selects - Vol 1
DYEAR=1900
DGENRE=
TTITLE0=Z.Z. Hill - Down Home Blues
TTITLE1=Johnnie Taylor - Last Two Dollars
TTITLE2=Bobby "Blue" Bland - You've Got to Hurt Before You Heal
TTITLE3=Bobby Rush - Hoochie Man
TTITLE4=Little Milton - A Juke Joint In My House
TTITLE5=Beat Daddys - Telephone, Telephone
TTITLE6=Poonanny - That Baby Ain't Black Enough
TTITLE7=Tyrone Davis - Sugar Daddy
TTITLE8=Johnnie Taylor - Ease Back Out
TTITLE9=Stan Mosley - Perfect Timing
TTITLE10=Carl Sims - M and M Man
TTITLE11=Mel Walters - Big Mamma
EXTD=
EXTT0=
EXTT1=
EXTT2=
EXTT3=
EXTT4=
EXTT5=
EXTT6=
EXTT7=
EXTT8=
EXTT9=
EXTT10=
EXTT11=
PLAYORDER=
